# xmcd CD database file
#
# Track frame offsets:
#	150
#	12417
#	25645
#	37767
#	51693
#	65613
#	78226
#	90977
#	103063
#	116283
#	130272
#	144373
#	157201
#	172196
#	185947
#	199525
#	213232
#	226500
#	240020
#	251367
#	263890
#	276060
#	290245
#	302992
#
# Disc length: 4203 seconds
#
# Revision: 0
# Processed by: cddbd v1.5.2PL0 Copyright (c) Steve Scherf et al.
# Submitted via: CDex 2.14
#
DISCID=4d106918
DTITLE=Julia Lee - The Chronological Julia Lee 1947
DYEAR=2005
DGENRE=Blues
TTITLE0=There Goes My Heart
TTITLE1=Snatch It And Grab It
TTITLE2=If You Hadn't Gone Away
TTITLE3=Nobody Knows You When You're Down And Out
TTITLE4=The Curse Of An Aching Heart
TTITLE5=Bleeding Hearted Blues
TTITLE6=Back Street
TTITLE7=Wise Guys
TTITLE8=Mama Don't Allow It
TTITLE9=Doubtful Blues
TTITLE10=Ain't It A Crime
TTITLE11=Knock Me A Kiss
TTITLE12=Cold Hearted Daddy
TTITLE13=My Sin
TTITLE14=When You're Smiling
TTITLE15=I Was Wrong
TTITLE16=Pagan Love Song
TTITLE17=All I Do Is Worry
TTITLE18=Take It Or Leave It
TTITLE19=That's What I Like
TTITLE20=King Size Papa
TTITLE21=Blues For Someone
TTITLE22=I'm Forever Blowing Bubbles
TTITLE23=Breeze
EXTD=YEAR: 2005
EXTT0=
EXTT1=
EXTT2=
EXTT3=
EXTT4=
EXTT5=
EXTT6=
EXTT7=
EXTT8=
EXTT9=
EXTT10=
EXTT11=
EXTT12=
EXTT13=
EXTT14=
EXTT15=
EXTT16=
EXTT17=
EXTT18=
EXTT19=
EXTT20=
EXTT21=
EXTT22=
EXTT23=
PLAYORDER=
